<?xml version="1.0" encoding="UTF-8" standalone="no"?>
<svg
   xmlns:dc="http://purl.org/dc/elements/1.1/"
   xmlns:cc="http://creativecommons.org/ns#"
   xmlns:rdf="http://www.w3.org/1999/02/22-rdf-syntax-ns#"
   xmlns:svg="http://www.w3.org/2000/svg"
   xmlns="http://www.w3.org/2000/svg"
   xmlns:sodipodi="http://sodipodi.sourceforge.net/DTD/sodipodi-0.dtd"
   xmlns:inkscape="http://www.inkscape.org/namespaces/inkscape"
   sodipodi:docname="UVindex-7.svg"
   inkscape:version="1.0beta1 (8bd5015, 2019-10-27)"
   id="svg8"
   version="1.1"
   viewBox="0 0 135.46666 135.46667"
   height="512"
   width="512">
  <defs
     id="defs2" />
  <sodipodi:namedview
     inkscape:window-maximized="1"
     inkscape:window-y="0"
     inkscape:window-x="103"
     inkscape:window-height="1043"
     inkscape:window-width="1817"
     units="px"
     showgrid="false"
     inkscape:document-rotation="0"
     inkscape:current-layer="layer3"
     inkscape:document-units="px"
     inkscape:cy="257.89236"
     inkscape:cx="270.54681"
     inkscape:zoom="1.4"
     inkscape:pageshadow="2"
     inkscape:pageopacity="0.0"
     borderopacity="1.0"
     bordercolor="#666666"
     pagecolor="#ffffff"
     id="base" />
  <metadata
     id="metadata5">
    <rdf:RDF>
      <cc:Work
         rdf:about="">
        <dc:format>image/svg+xml</dc:format>
        <dc:type
           rdf:resource="http://purl.org/dc/dcmitype/StillImage" />
        <dc:title></dc:title>
      </cc:Work>
    </rdf:RDF>
  </metadata>
  <g
     id="layer1"
     inkscape:groupmode="layer"
     inkscape:label="Layer 1">
    <a
       id="a95156">
      <path
         inkscape:connector-curvature="0"
         id="path95134-6"
         d="M 12.707355,135.28135 C 7.5055665,134.29654 2.7086662,129.40242 1.7472428,124.09911 1.3477261,121.89527 1.3477261,13.819756 1.7472428,11.615943 2.7308562,6.1902435 7.5287165,1.3923562 12.954385,0.40873988 c 1.045674,-0.189569 9.527746,-0.283307 25.399856,-0.280702 26.43796,0.0043 25.601096,-0.04622 29.025885,1.75346902 3.387692,1.7801941 6.312014,5.6226657 7.079281,9.3019911 0.208057,0.997719 0.292387,17.368579 0.292387,56.763691 0,60.495681 0.0963,56.645411 -1.498641,59.937251 -1.009114,2.08276 -3.697369,4.80587 -5.873027,5.94916 -3.434119,1.8046 -2.547645,1.75239 -29.272915,1.72389 -13.917049,-0.0148 -24.635179,-0.13137 -25.399856,-0.27614 z m 51.254062,-5.95553 c 1.753028,-0.80989 3.738289,-2.75784 4.478103,-4.39396 0.593717,-1.31303 0.627747,-1.70133 0.706417,-8.06025 l 0.0827,-6.68076 h -2.794615 -2.794625 v -2.77814 -2.77815 h 2.778115 2.778105 V 94.712669 84.790796 H 49.484268 29.772929 v -2.778125 -2.778125 h 19.711339 19.711349 v -1.789329 -1.789329 c -1.5e-4,-24.731759 0,3.578658 -4e-5,-17.387091 v -1.790602 c -20.681479,0.04483 -41.362958,0.08965 -62.0444372,0.13448 v 11.244791 11.244792 l 2.8442535,0.0751 19.7775357,0.05719 v 2.778123 2.778127 l -19.8468957,1.1e-5 H 7.0124098 l 0.0694,9.855729 0.0694,9.855752 25.3337042,0.0675 31.154483,0.0648 c 11.376987,-0.003 5.58924,5.55626 0,5.55629 l -31.241053,7e-5 H 6.9781398 l 0.10307,6.54847 c 0.0855,5.43072 0.18266,6.76049 0.5693867,7.79058 0.9096234,2.42288 3.4485905,4.56778 6.1801525,5.22097 0.555867,0.13292 11.537617,0.21858 24.937919,0.19452 l 23.944655,-0.043 z m 5.23416,-88.323567 V 31.080372 H 66.417462 63.639357 V 28.302245 25.52412 h 2.794615 2.794625 l -0.0827,-6.680729 c -0.0787,-6.358883 -0.1127,-6.747185 -0.706417,-8.060204 C 67.699666,9.1470756 65.714405,7.1991379 63.961377,6.3892645 L 62.713283,5.8126648 H 38.239461 13.765639 L 12.178148,6.5552272 C 10.39962,7.3871499 9.3769966,8.2518053 8.4406229,9.7153833 7.2590598,11.562221 7.0188098,13.236935 7.0188098,19.626584 V 25.52412 H 32.418664 63.639357 v 2.778125 2.778127 l -31.154553,0.06482 -25.3337042,0.06747 -0.0694,9.855735 -0.0694,9.855731 H 38.103881 69.195467 Z M 80.572591,114.4242 v -4.23335 h 2.778115 2.778105 v 4.23335 4.23337 h -2.778105 -2.778115 z m -6.382961,-9.40794 c 0.0935,-0.89448 0.01462,-1.35144 0.07548,-1.96156 l 0.188988,-1.89438 9.756489,0.49597 c 7.010111,-0.27334 12.414081,-2.006497 18.086353,-5.800627 6.98118,-4.669634 11.83822,-11.774551 14.07558,-20.589867 0.48827,-1.923803 0.5708,-2.994903 0.5708,-7.408333 0,-4.41343 -0.0825,-5.484529 -0.5708,-7.408333 -1.2724,-5.013341 -3.32378,-9.405813 -6.11652,-13.096875 -1.88669,-2.493579 -5.33185,-5.735684 -7.97021,-7.500456 C 96.598268,36.04747 91.249248,34.333088 84.210587,34.058633 l -9.638371,0.283369 0.04725,-2.295985 c 0.01261,-0.613014 -0.123747,-0.618225 -0.217224,-1.512697 l 0.396984,-1.815298 8.75208,-0.283482 c 14.837065,-0.480576 28.366994,8.428672 35.077894,21.864925 9.64469,19.310148 1.8989,42.811622 -17.37284,52.710855 -5.415036,2.78154 -11.58701,4.27009 -17.705054,4.27009 l -9.130056,-0.8032 z m 40.77869,-1.57232 -3.03626,-3.04492 1.98438,-1.98437 1.98437,-1.984375 3.03626,3.044898 3.03625,3.044897 -1.98437,1.98438 -1.98438,1.9844 z M 84.64893,78.967479 C 81.929555,78.414198 79.503157,76.531026 78.418253,74.131729 77.824536,72.81871 77.790506,72.43041 77.711829,66.071526 l -0.0827,-6.680729 h 2.781025 2.781032 l 0.0797,6.239867 0.0797,6.239867 0.864064,0.771591 c 1.001864,0.894644 2.473098,1.038831 3.470612,0.340138 1.192684,-0.835393 1.353831,-1.775077 1.353831,-7.894423 v -5.69704 h 2.794625 2.794615 l -0.0827,6.680729 -0.0827,6.680729 -0.740927,1.508815 c -1.664798,3.390191 -5.574597,5.418244 -9.073286,4.706409 z m 20.00064,-0.189868 c -0.82421,-0.41752 -1.26791,-1.145908 -4.0349,-6.623754 l -3.108835,-6.15465 v -3.304204 -3.304206 h 2.778105 2.77813 l 0.0136,2.579687 0.0136,2.579688 1.40858,2.773076 1.40857,2.77308 1.35599,-2.702126 1.35599,-2.702124 v -2.650641 -2.65064 h 2.93762 2.93762 l -0.10526,3.241145 -0.10526,3.241146 -3.09404,6.143564 c -1.87383,3.720695 -3.32997,6.296168 -3.69226,6.530518 -1.02058,0.660169 -1.86409,0.72844 -2.84717,0.230441 z m 21.01553,-8.360309 c -0.074,-0.192818 -0.10002,-1.47274 -0.0578,-2.844271 l 0.0767,-2.493693 4.16719,-0.07286 4.16719,-0.07287 v 2.917137 2.917135 h -4.10935 c -3.16748,0 -4.14018,-0.08035 -4.24387,-0.350578 z m -11.75367,-33.11776 -1.97488,-1.988152 3.03401,-3.042643 3.03401,-3.042644 1.98583,1.985831 1.98584,1.985834 -3.04497,3.044961 -3.04496,3.044962 z M 80.572591,21.290787 v -4.233333 h 2.778115 2.778105 v 4.233333 4.233333 h -2.778105 -2.778115 z"
         style="fill:#000000;stroke-width:0.264583"
         sodipodi:nodetypes="sccscscscscscccccccccccccccccccccccccccccccccccccccscsccccccccccccccccscsccccccccccccccccccccccscccssccsscsccsscscccccccccccccccccccscscccccccccccccccccccccccccccsscccccccccscccccccccccccccccccc" />
    </a>
  </g>
  <g
     inkscape:label="color"
     id="layer3"
     inkscape:groupmode="layer">
    <path
       transform="scale(0.26458333)"
       inkscape:connector-curvature="0"
       id="path95160"
       d="M 52.341242,489.87391 C 44.123707,488.48804 33.993944,480.4407 30.16358,472.2554 c -2.08364,-4.45264 -2.163757,-5.01989 -2.735449,-19.36787 -0.323918,-8.12949 -0.606513,-19.52196 -0.627988,-25.3166 l -0.03905,-10.53572 H 143.90395 261.04681 l -0.0194,19.46429 c -0.0243,24.41835 -0.62418,31.17297 -3.22601,36.323 -2.62241,5.19074 -10.37301,12.69653 -16.02939,15.52306 l -4.52484,2.26108 -90.77877,-0.084 c -49.928326,-0.0462 -92.285564,-0.33813 -94.127198,-0.64872 z"
       style="fill:#00ff00;stroke-width:1.32141;stop-color:#000000" />
    <path
       transform="scale(0.26458333)"
       inkscape:connector-curvature="0"
       id="path95162"
       d="m 301.7611,383.04387 c -8.44643,-0.48156 -16.16072,-0.90555 -17.14286,-0.94218 l -1.78571,-0.0666 -0.10413,-125.99209 -0.10412,-125.99208 19.64735,-0.52623 c 16.32125,-0.43715 21.24667,-0.32621 29.09454,0.6553 26.62607,3.33003 47.91877,13.27498 69.61961,32.51648 17.97602,15.9388 31.22222,38.34805 38.03093,64.33876 1.96248,7.49132 2.18588,9.5345 2.53822,23.21429 0.65142,25.29123 -1.25153,36.51246 -9.44514,55.69557 -17.75589,41.57064 -54.82744,70.46382 -97.98886,76.37152 -11.62502,1.59117 -15.62907,1.68117 -32.35983,0.72728 z m 37.48858,-87.3494 c 7.04773,-3.49229 12.07704,-8.53984 15.67301,-15.72986 l 2.35818,-4.71511 0.37814,-25.53572 0.37815,-25.53571 H 347.0958 336.15444 l -0.24208,22.32143 c -0.20599,18.99307 -0.42062,22.7185 -1.43941,24.98436 -1.5,3.33612 -5.02552,5.55315 -8.78328,5.52337 -3.10179,-0.0246 -4.65402,-0.72823 -8.10891,-3.6759 l -2.24823,-1.91817 -0.002,-10.22469 c -0.001,-5.62358 -0.21265,-16.25147 -0.47008,-23.61754 l -0.46806,-13.39286 h -10.60135 -10.60135 l 0.039,16.25 c 0.0214,8.9375 0.29954,20.75872 0.61804,26.26937 0.49879,8.63007 0.84133,10.57372 2.47033,14.01714 3.70149,7.8243 10.50689,13.65319 19.71331,16.88463 3.88193,1.36255 5.71249,1.5855 10.97114,1.33616 5.64302,-0.26756 6.94078,-0.61096 12.24822,-3.2409 z m 65.86763,2.08514 c 2.94894,-1.79808 6.58807,-8.01052 18.00952,-30.7444 l 9.15081,-18.21428 0.42363,-12.32143 0.42362,-12.32143 h -11.39618 -11.39618 v 9.99325 9.99325 l -4.80918,9.64961 c -2.64504,5.30728 -4.9754,9.646 -5.17857,9.64159 -0.20317,-0.004 -2.69975,-4.59464 -5.54797,-10.20051 l -5.17857,-10.1925 v -9.44235 -9.44234 h -10.71429 -10.71428 l 0.006,12.67857 0.006,12.67857 10.89614,21.42857 c 5.99287,11.78572 11.69563,22.51595 12.67279,23.84496 3.16713,4.30755 9.01878,5.61004 13.34715,2.97087 z"
       style="fill:#ffd42a;stroke-width:1.32141;stop-color:#000000" />
    <path
       transform="scale(0.26458333)"
       inkscape:connector-curvature="0"
       id="path95164"
       d="M 304.61824,80.606642 V 64.892356 h 10.35714 10.35715 v 15.714286 15.714286 h -10.35715 -10.35714 z"
       style="fill:#ffd42a;stroke-width:1.32141;stop-color:#000000" />
    <path
       transform="scale(0.26458333)"
       inkscape:connector-curvature="0"
       id="path95166"
       d="m 430.68439,140.60135 -7.12132,-7.14815 11.24111,-11.24111 11.24111,-11.24112 7.31569,7.31569 7.31569,7.31569 -11.05629,11.07357 c -6.08096,6.09047 -11.22692,11.07358 -11.43547,11.07358 -0.20855,0 -3.58378,-3.21667 -7.50052,-7.14815 z"
       style="fill:#ffd42a;stroke-width:1.32141;stop-color:#000000" />
    <path
       transform="scale(0.26458333)"
       inkscape:connector-curvature="0"
       id="path95168"
       d="m 476.22538,266.56216 c -0.65425,-0.264 -0.89285,-3.01671 -0.89285,-10.30076 v -9.94047 h 6.67357 c 3.67046,0 10.58117,-0.21011 15.35714,-0.46691 l 8.68357,-0.46692 v 10.82406 10.82405 l -14.46428,-0.0564 c -7.95536,-0.031 -14.86608,-0.21851 -15.35715,-0.41666 z"
       style="fill:#ffd42a;stroke-width:1.32141;stop-color:#000000" />
    <path
       transform="scale(0.26458333)"
       inkscape:connector-curvature="0"
       id="path95170"
       d="m 434.62062,390.25189 -11.05176,-11.06905 7.12106,-7.14788 7.12107,-7.14789 11.25857,11.24207 11.25856,11.24208 -6.94868,6.97485 c -3.82178,3.83617 -7.11932,6.97486 -7.32787,6.97486 -0.20855,0 -5.35248,-4.98107 -11.43095,-11.06904 z"
       style="fill:#ffd42a;stroke-width:1.32141;stop-color:#000000" />
    <path
       transform="scale(0.26458333)"
       inkscape:connector-curvature="0"
       id="path95172"
       d="m 304.61824,432.7495 v -15.71429 h 10.35714 10.35715 v 15.71429 15.71429 h -10.35715 -10.35714 z"
       style="fill:#ffd42a;stroke-width:1.32141;stop-color:#000000" />
    <path
       transform="scale(0.26458333)"
       inkscape:connector-curvature="0"
       id="path95174"
       d="m 27.234051,369.06126 c -0.260125,-14.2071 -0.472955,-30.92138 -0.472955,-37.14285 V 320.60664 H 143.90395 261.04681 v 37.14286 37.14286 H 144.37691 27.707007 Z"
       style="fill:#ffff00;stroke-width:1.32141;stop-color:#000000" />
    <path
       transform="scale(0.26458333)"
       inkscape:connector-curvature="0"
       id="path95176"
       d="m 30.868239,298.65304 -3.392857,-0.26753 v -42.10372 -42.10372 l 107.678568,-0.003 c 59.22322,-0.002 111.77679,-0.21191 116.78572,-0.46737 l 9.10714,-0.46448 v 42.96738 42.96737 L 147.65395,299.04932 C 85.287882,298.97851 32.734311,298.80018 30.868239,298.65304 Z"
       style="fill:#ffb72d;stroke-width:1.32141;stop-color:#000000;fill-opacity:1" />
  </g>
</svg>
