<?xml version="1.0" encoding="UTF-8" standalone="no"?>
<svg
   xmlns:dc="http://purl.org/dc/elements/1.1/"
   xmlns:cc="http://creativecommons.org/ns#"
   xmlns:rdf="http://www.w3.org/1999/02/22-rdf-syntax-ns#"
   xmlns:svg="http://www.w3.org/2000/svg"
   xmlns="http://www.w3.org/2000/svg"
   xmlns:sodipodi="http://sodipodi.sourceforge.net/DTD/sodipodi-0.dtd"
   xmlns:inkscape="http://www.inkscape.org/namespaces/inkscape"
   sodipodi:docname="UVindex.svg"
   inkscape:version="1.0beta1 (8bd5015, 2019-10-27)"
   id="svg8"
   version="1.1"
   viewBox="0 0 135.46666 135.46667"
   height="512"
   width="512">
  <defs
     id="defs2" />
  <sodipodi:namedview
     inkscape:window-maximized="1"
     inkscape:window-y="0"
     inkscape:window-x="103"
     inkscape:window-height="1043"
     inkscape:window-width="1817"
     units="px"
     showgrid="false"
     inkscape:document-rotation="0"
     inkscape:current-layer="layer1"
     inkscape:document-units="px"
     inkscape:cy="410.68517"
     inkscape:cx="283.03833"
     inkscape:zoom="11.2"
     inkscape:pageshadow="2"
     inkscape:pageopacity="0.0"
     borderopacity="1.0"
     bordercolor="#666666"
     pagecolor="#ffffff"
     id="base" />
  <metadata
     id="metadata5">
    <rdf:RDF>
      <cc:Work
         rdf:about="">
        <dc:format>image/svg+xml</dc:format>
        <dc:type
           rdf:resource="http://purl.org/dc/dcmitype/StillImage" />
        <dc:title></dc:title>
      </cc:Work>
    </rdf:RDF>
  </metadata>
  <g
     id="layer1"
     inkscape:groupmode="layer"
     inkscape:label="Layer 1">
    <a
       id="a95156">
      <path
         inkscape:connector-curvature="0"
         id="path95134-6"
         d="M 12.707355,135.28135 C 7.5055665,134.29654 2.7086662,129.40242 1.7472428,124.09911 1.3477261,121.89527 1.3477261,13.819756 1.7472428,11.615943 2.7308562,6.1902435 7.5287165,1.3923562 12.954385,0.40873988 c 1.045674,-0.189569 9.527746,-0.283307 25.399856,-0.280702 26.43796,0.0043 25.601096,-0.04622 29.025885,1.75346902 3.387692,1.7801941 6.312014,5.6226657 7.079281,9.3019911 0.208057,0.997719 0.292387,17.368579 0.292387,56.763691 0,60.495681 0.0963,56.645411 -1.498641,59.937251 -1.009114,2.08276 -3.697369,4.80587 -5.873027,5.94916 -3.434119,1.8046 -2.547645,1.75239 -29.272915,1.72389 -13.917049,-0.0148 -24.635179,-0.13137 -25.399856,-0.27614 z m 51.254062,-5.95553 c 1.753028,-0.80989 3.738289,-2.75784 4.478103,-4.39396 0.593717,-1.31303 0.627747,-1.70133 0.706417,-8.06025 l 0.0827,-6.68076 h -2.794615 -2.794625 v -2.77814 -2.77815 h 2.778115 2.778105 V 94.712669 84.790796 H 49.484268 29.772929 v -2.778125 -2.778125 h 19.711339 19.711349 v -1.789329 -1.789329 c -1.5e-4,-24.731759 0,3.578658 -4e-5,-17.387091 v -1.790602 c -20.681479,0.04483 -41.362958,0.08965 -62.0444372,0.13448 v 11.244791 11.244792 l 2.8442535,0.0751 19.7775357,0.05719 v 2.778123 2.778127 l -19.8468957,1.1e-5 H 7.0124098 l 0.0694,9.855729 0.0694,9.855752 25.3337042,0.0675 31.154483,0.0648 c 11.376987,-0.003 5.58924,5.55626 0,5.55629 l -31.241053,7e-5 H 6.9781398 l 0.10307,6.54847 c 0.0855,5.43072 0.18266,6.76049 0.5693867,7.79058 0.9096234,2.42288 3.4485905,4.56778 6.1801525,5.22097 0.555867,0.13292 11.537617,0.21858 24.937919,0.19452 l 23.944655,-0.043 z m 5.23416,-88.323567 V 31.080372 H 66.417462 63.639357 V 28.302245 25.52412 h 2.794615 2.794625 l -0.0827,-6.680729 c -0.0787,-6.358883 -0.1127,-6.747185 -0.706417,-8.060204 C 67.699666,9.1470756 65.714405,7.1991379 63.961377,6.3892645 L 62.713283,5.8126648 H 38.239461 13.765639 L 12.178148,6.5552272 C 10.39962,7.3871499 9.3769966,8.2518053 8.4406229,9.7153833 7.2590598,11.562221 7.0188098,13.236935 7.0188098,19.626584 V 25.52412 H 32.418664 63.639357 v 2.778125 2.778127 l -31.154553,0.06482 -25.3337042,0.06747 -0.0694,9.855735 -0.0694,9.855731 H 38.103881 69.195467 Z M 80.572591,114.4242 v -4.23335 h 2.778115 2.778105 v 4.23335 4.23337 h -2.778105 -2.778115 z m -6.382961,-9.40794 c 0.0935,-0.89448 0.01462,-1.35144 0.07548,-1.96156 l 0.188988,-1.89438 9.756489,0.49597 c 7.010111,-0.27334 12.414081,-2.006497 18.086353,-5.800627 6.98118,-4.669634 11.83822,-11.774551 14.07558,-20.589867 0.48827,-1.923803 0.5708,-2.994903 0.5708,-7.408333 0,-4.41343 -0.0825,-5.484529 -0.5708,-7.408333 -1.2724,-5.013341 -3.32378,-9.405813 -6.11652,-13.096875 -1.88669,-2.493579 -5.33185,-5.735684 -7.97021,-7.500456 C 96.598268,36.04747 91.249248,34.333088 84.210587,34.058633 l -9.638371,0.283369 0.04725,-2.295985 c 0.01261,-0.613014 -0.123747,-0.618225 -0.217224,-1.512697 l 0.396984,-1.815298 8.75208,-0.283482 c 14.837065,-0.480576 28.366994,8.428672 35.077894,21.864925 9.64469,19.310148 1.8989,42.811622 -17.37284,52.710855 -5.415036,2.78154 -11.58701,4.27009 -17.705054,4.27009 l -9.130056,-0.8032 z m 40.77869,-1.57232 -3.03626,-3.04492 1.98438,-1.98437 1.98437,-1.984375 3.03626,3.044898 3.03625,3.044897 -1.98437,1.98438 -1.98438,1.9844 z M 84.64893,78.967479 C 81.929555,78.414198 79.503157,76.531026 78.418253,74.131729 77.824536,72.81871 77.790506,72.43041 77.711829,66.071526 l -0.0827,-6.680729 h 2.781025 2.781032 l 0.0797,6.239867 0.0797,6.239867 0.864064,0.771591 c 1.001864,0.894644 2.473098,1.038831 3.470612,0.340138 1.192684,-0.835393 1.353831,-1.775077 1.353831,-7.894423 v -5.69704 h 2.794625 2.794615 l -0.0827,6.680729 -0.0827,6.680729 -0.740927,1.508815 c -1.664798,3.390191 -5.574597,5.418244 -9.073286,4.706409 z m 20.00064,-0.189868 c -0.82421,-0.41752 -1.26791,-1.145908 -4.0349,-6.623754 l -3.108835,-6.15465 v -3.304204 -3.304206 h 2.778105 2.77813 l 0.0136,2.579687 0.0136,2.579688 1.40858,2.773076 1.40857,2.77308 1.35599,-2.702126 1.35599,-2.702124 v -2.650641 -2.65064 h 2.93762 2.93762 l -0.10526,3.241145 -0.10526,3.241146 -3.09404,6.143564 c -1.87383,3.720695 -3.32997,6.296168 -3.69226,6.530518 -1.02058,0.660169 -1.86409,0.72844 -2.84717,0.230441 z m 21.01553,-8.360309 c -0.074,-0.192818 -0.10002,-1.47274 -0.0578,-2.844271 l 0.0767,-2.493693 4.16719,-0.07286 4.16719,-0.07287 v 2.917137 2.917135 h -4.10935 c -3.16748,0 -4.14018,-0.08035 -4.24387,-0.350578 z m -11.75367,-33.11776 -1.97488,-1.988152 3.03401,-3.042643 3.03401,-3.042644 1.98583,1.985831 1.98584,1.985834 -3.04497,3.044961 -3.04496,3.044962 z M 80.572591,21.290787 v -4.233333 h 2.778115 2.778105 v 4.233333 4.233333 h -2.778105 -2.778115 z"
         style="fill:#000000;stroke-width:0.264583"
         sodipodi:nodetypes="sccscscscscscccccccccccccccccccccccccccccccccccccccscsccccccccccccccccscsccccccccccccccccccccccscccssccsscsccsscscccccccccccccccccccscscccccccccccccccccccccccccccsscccccccccscccccccccccccccccccc" />
    </a>
  </g>
</svg>
